<svg xmlns="http://www.w3.org/2000/svg" xmlns:xlink="http://www.w3.org/1999/xlink" width="663.65" height="587.076" viewBox="0 0 663.65 587.076">
  <defs>
    <clipPath id="clip-path">
      <rect id="Rectangle_787" data-name="Rectangle 787" width="92" height="187" transform="translate(1332 465)" fill="#fff" stroke="#707070" stroke-width="1"/>
    </clipPath>
    <linearGradient id="linear-gradient" x1="0.5" y1="-2.096" x2="0.5" y2="6.716" gradientUnits="objectBoundingBox">
      <stop offset="0" stop-color="#fff"/>
      <stop offset="1" stop-color="#c5abff"/>
    </linearGradient>
  </defs>
  <g id="Group_7912" data-name="Group 7912" transform="translate(-984.35 -341)">
    <g id="Group_7821" data-name="Group 7821">
      <ellipse id="Ellipse_113" data-name="Ellipse 113" cx="84.681" cy="12.542" rx="84.681" ry="12.542" transform="translate(1002.043 902.993)" fill="#baa4ff"/>
      <g id="Group_7793" data-name="Group 7793" transform="translate(1098 341)">
        <rect id="Rectangle_778" data-name="Rectangle 778" width="357.24" height="517.448" rx="14.173" transform="translate(14.604)" fill="#30193b"/>
        <rect id="Rectangle_779" data-name="Rectangle 779" width="357.24" height="517.448" rx="11.339" fill="#3b2b5b"/>
        <rect id="Rectangle_780" data-name="Rectangle 780" width="293.636" height="402.962" transform="translate(31.802 57.242)" fill="#c8bbff"/>
        <path id="Path_5900" data-name="Path 5900" d="M-277.825,288.625H.308V275.818H-293.328V678.78h15.5Z" transform="translate(325.13 -218.576)" fill="#9b89e5"/>
        <path id="Path_5901" data-name="Path 5901" d="M-257.324,278.526a7.307,7.307,0,0,1-7.3,7.3,7.3,7.3,0,0,1-7.3-7.3,7.3,7.3,0,0,1,7.3-7.3A7.3,7.3,0,0,1-257.324,278.526Z" transform="translate(443.247 -243.934)" fill="#baa4ff"/>
        <rect id="Rectangle_781" data-name="Rectangle 781" width="37.747" height="15.278" transform="translate(69.65 112.329)" fill="#9b89e5"/>
        <rect id="Rectangle_782" data-name="Rectangle 782" width="37.746" height="15.278" transform="translate(232.423 112.329)" fill="#9b89e5"/>
        <rect id="Rectangle_783" data-name="Rectangle 783" width="37.747" height="15.278" transform="translate(276.116 112.329)" fill="#9b89e5"/>
        <rect id="Rectangle_784" data-name="Rectangle 784" width="136.927" height="402.962" transform="translate(188.51 57.243)" fill="#ddd7ff" style="mix-blend-mode: multiply;isolation: isolate"/>
      </g>
      <g id="Group_7801" data-name="Group 7801" transform="translate(0 14.744)">
        <g id="Group_7729" data-name="Group 7729" transform="translate(1134 383)">
          <path id="Path_5879" data-name="Path 5879" d="M478.091,275.128H183.073l1.039-348.074V-127.62H475.9Z" transform="translate(-187.858 127.62)" fill="#d5eaf5"/>
        </g>
        <g id="Group_7730" data-name="Group 7730" transform="translate(1229.421 399.614)">
          <rect id="Rectangle_752" data-name="Rectangle 752" width="102.699" height="25.021" fill="#aacbe8"/>
        </g>
        <g id="Group_7731" data-name="Group 7731" transform="translate(1148.234 452.13)">
          <path id="Path_5880" data-name="Path 5880" d="M441.415-109.739H192.856c-.986,0-1.785-.509-1.785-1.139s.8-1.139,1.785-1.139H441.415c.986,0,1.785.509,1.785,1.139S442.4-109.739,441.415-109.739Z" transform="translate(-191.071 112.016)" fill="#aacbe8"/>
        </g>
        <g id="Group_7732" data-name="Group 7732" transform="translate(1148.199 616.708)">
          <path id="Path_5881" data-name="Path 5881" d="M441.407-69.253H192.848c-.986,0-1.785-.509-1.785-1.139s.8-1.139,1.785-1.139H441.407c.986,0,1.785.509,1.785,1.139S442.393-69.253,441.407-69.253Z" transform="translate(-191.063 71.53)" fill="#aacbe8"/>
        </g>
        <g id="Group_7733" data-name="Group 7733" transform="translate(1149.656 493.771)">
          <path id="Path_5882" data-name="Path 5882" d="M440.408-98.758H193.182c-.989,0-1.79-.509-1.79-1.139s.8-1.139,1.79-1.139H440.408c1,0,1.8.51,1.8,1.139S441.4-98.758,440.408-98.758Z" transform="translate(-191.392 101.035)" fill="#aacbe8"/>
        </g>
        <g id="Group_7734" data-name="Group 7734" transform="translate(1149.417 580.221)">
          <path id="Path_5883" data-name="Path 5883" d="M440.459-78.01H193.135c-.989,0-1.8-.509-1.8-1.139s.808-1.139,1.8-1.139H440.459c.989,0,1.79.51,1.79,1.139S441.447-78.01,440.459-78.01Z" transform="translate(-191.338 80.287)" fill="#aacbe8"/>
        </g>
        <g id="Group_7735" data-name="Group 7735" transform="translate(1149.372 464.04)">
          <rect id="Rectangle_753" data-name="Rectangle 753" width="43.155" height="13.371" fill="#aacbe8"/>
        </g>
        <g id="Group_7736" data-name="Group 7736" transform="translate(1150.796 682.267)">
          <rect id="Rectangle_754" data-name="Rectangle 754" width="43.156" height="14.138" fill="#aacbe8"/>
        </g>
        <g id="Group_7737" data-name="Group 7737" transform="translate(1357.144 683.532)">
          <rect id="Rectangle_755" data-name="Rectangle 755" width="43.156" height="14.138" transform="translate(0 0)" fill="#aacbe8"/>
        </g>
        <g id="Group_7738" data-name="Group 7738" transform="translate(1149.372 532.443)">
          <rect id="Rectangle_756" data-name="Rectangle 756" width="43.155" height="13.372" fill="#aacbe8"/>
        </g>
        <g id="Group_7739" data-name="Group 7739" transform="translate(1357.144 569.665)">
          <rect id="Rectangle_757" data-name="Rectangle 757" width="43.156" height="13.371" fill="#aacbe8"/>
        </g>
        <g id="Group_7741" data-name="Group 7741" transform="translate(1326.974 461.948)">
          <rect id="Rectangle_759" data-name="Rectangle 759" width="70.064" height="13.371" fill="#aacbe8"/>
        </g>
        <g id="Group_7742" data-name="Group 7742" transform="translate(1148.295 605.831)">
          <rect id="Rectangle_760" data-name="Rectangle 760" width="70.064" height="13.371" fill="#aacbe8"/>
        </g>
        <g id="Group_7743" data-name="Group 7743" transform="translate(1330.236 605.831)">
          <rect id="Rectangle_761" data-name="Rectangle 761" width="70.064" height="13.371" fill="#aacbe8"/>
        </g>
        <g id="Group_7744" data-name="Group 7744" transform="translate(1306.611 482.961)">
          <rect id="Rectangle_762" data-name="Rectangle 762" width="93.827" height="13.371" fill="#aacbe8"/>
        </g>
        <g id="Group_7745" data-name="Group 7745" transform="translate(1300.547 532.443)">
          <rect id="Rectangle_763" data-name="Rectangle 763" width="99.891" height="13.372" fill="#aacbe8"/>
        </g>
        <g id="Group_7746" data-name="Group 7746" transform="translate(1148.295 569.665)">
          <rect id="Rectangle_764" data-name="Rectangle 764" width="98.676" height="13.371" fill="#aacbe8"/>
        </g>
        <g id="Group_7747" data-name="Group 7747" transform="translate(1148.328 550.441)">
          <rect id="Rectangle_765" data-name="Rectangle 765" width="251.972" height="13.371" fill="#aacbe8"/>
        </g>
        <g id="Group_7748" data-name="Group 7748" transform="translate(1151.068 700.157)">
          <rect id="Rectangle_766" data-name="Rectangle 766" width="6.434" height="73.928" fill="#aacbe8"/>
        </g>
        <g id="Group_7749" data-name="Group 7749" transform="translate(1260.023 700.157)">
          <rect id="Rectangle_767" data-name="Rectangle 767" width="6.434" height="73.928" fill="#aacbe8"/>
        </g>
        <g id="Group_7750" data-name="Group 7750" transform="translate(1360.629 700.157)">
          <rect id="Rectangle_768" data-name="Rectangle 768" width="6.434" height="73.928" fill="#aacbe8"/>
        </g>
        <g id="Group_7751" data-name="Group 7751" transform="translate(1201.676 700.157)">
          <rect id="Rectangle_769" data-name="Rectangle 769" width="3.217" height="73.928" fill="#aacbe8"/>
        </g>
        <g id="Group_7752" data-name="Group 7752" transform="translate(1161.706 700.157)">
          <rect id="Rectangle_770" data-name="Rectangle 770" width="12.183" height="73.928" fill="#aacbe8"/>
        </g>
        <g id="Group_7753" data-name="Group 7753" transform="translate(1241.694 700.157)">
          <rect id="Rectangle_771" data-name="Rectangle 771" width="3.217" height="73.928" fill="#aacbe8"/>
        </g>
        <g id="Group_7754" data-name="Group 7754" transform="translate(1301.722 700.157)">
          <rect id="Rectangle_772" data-name="Rectangle 772" width="3.217" height="73.928" fill="#aacbe8"/>
        </g>
        <g id="Group_7755" data-name="Group 7755" transform="translate(1341.741 700.157)">
          <rect id="Rectangle_773" data-name="Rectangle 773" width="3.217" height="73.928" fill="#aacbe8"/>
        </g>
        <g id="Group_7756" data-name="Group 7756" transform="translate(1216.351 700.157)">
          <rect id="Rectangle_774" data-name="Rectangle 774" width="12.183" height="73.928" fill="#aacbe8"/>
        </g>
        <g id="Group_7757" data-name="Group 7757" transform="translate(1277.345 700.157)">
          <rect id="Rectangle_775" data-name="Rectangle 775" width="12.183" height="73.928" fill="#aacbe8"/>
        </g>
        <g id="Group_7758" data-name="Group 7758" transform="translate(1318.007 700.157)">
          <rect id="Rectangle_776" data-name="Rectangle 776" width="12.183" height="73.928" fill="#aacbe8"/>
        </g>
        <g id="Group_7759" data-name="Group 7759" transform="translate(1388.117 700.157)">
          <rect id="Rectangle_777" data-name="Rectangle 777" width="12.183" height="73.928" fill="#aacbe8"/>
        </g>
        <g id="Group_7806" data-name="Group 7806">
          <rect id="Rectangle_786" data-name="Rectangle 786" width="54" height="21" rx="3" transform="translate(1152 483.256)" fill="#fff"/>
          <rect id="Rectangle_785" data-name="Rectangle 785" width="53" height="21" rx="3" transform="translate(1150 483.256)" fill="#ef3a3a"/>
        </g>
      </g>
      <text id="Invoice_" data-name="Invoice " transform="translate(1230 438)" fill="#30193b" font-size="37" font-family="BarlowSemiCondensed-Thin, Barlow" font-weight="200"><tspan x="0" y="0">Invoice </tspan></text>
      <text id="PAY" transform="translate(1165 514)" fill="#fff" font-size="15" font-family="BarlowSemiCondensed-ExtraBold, Barlow" font-weight="800"><tspan x="0" y="0">PAY</tspan></text>
      <g id="Group_7804" data-name="Group 7804" transform="translate(-83 32.333)">
        <g id="Group_7592" data-name="Group 7592" transform="translate(1180.594 678.019)">
          <path id="Path_5919" data-name="Path 5919" d="M71.979,144.058c39.432.31,71.138-31.686,70.818-71.466S110.252.312,70.82,0-.317,31.688,0,71.468,32.547,143.747,71.979,144.058Z" transform="matrix(0.951, -0.31, 0.31, 0.951, 0, 44.251)" fill="#ffcb48"/>
        </g>
        <g id="Group_7593" data-name="Group 7593" transform="translate(1205.19 703.199)">
          <path id="Path_5797" data-name="Path 5797" d="M575.1,219.52a64.332,64.332,0,0,1,41.317-82.081,65.639,65.639,0,0,1,50.125,4.328,66.631,66.631,0,0,1,32.945,38.295h0a64.534,64.534,0,0,1-3.436,49.836,63.535,63.535,0,0,1-37.878,32.245,65.058,65.058,0,0,1-19.693,3.051A67.147,67.147,0,0,1,575.1,219.52Zm42.771-77.735c-31.833,10.1-49.016,44.337-38.309,76.32S624.9,267.893,656.722,257.8a58.9,58.9,0,0,0,35.115-29.91,60.107,60.107,0,0,0,3.191-46.413h0a62.053,62.053,0,0,0-30.675-35.666,61.422,61.422,0,0,0-28.127-6.875A60.594,60.594,0,0,0,617.875,141.784Z" transform="translate(-571.689 -134.361)" fill="#ff9a2e"/>
        </g>
        <g id="Group_7600" data-name="Group 7600" transform="translate(1237.956 717.204)">
          <g id="Group_7595" data-name="Group 7595" transform="translate(0 9.789)">
            <g id="Group_7594" data-name="Group 7594">
              <path id="Path_5798" data-name="Path 5798" d="M632.193,157.576c-2.529-6.905-9.464-12.812-16.762-14.622-5.994-1.485-11.782.775-16.9,3.741-5.4,3.123-10.87,7.429-14.032,12.827-3.818,6.525-.986,13.319,3.94,18.511,5.2,5.481,11.174,7.768,18.734,7.836,8.493.078,17.136-1.686,25.3,1.541,13.9,5.5,10.071,22.162-3.492,25.511-11.318,2.794-25.858-.487-28.277-13.348-.4-2.1-7.094,1.444-6.728,3.387,3.453,18.351,26.961,18.235,40.515,11.2,6.288-3.264,12.2-8.686,13.449-15.824,1.387-7.916-3.908-13.818-11.3-16.154-7.46-2.355-15.189-1.226-22.849-1.085-9.9.179-18.893-3.928-23.127-13.278-4.062-8.97,4.545-18.758,13.758-20.44,8.916-1.628,18.438,6.728,21.228,14.351.533,1.459,7.343-1.982,6.549-4.153Z" transform="translate(-582.725 -142.485)" fill="#ff9a2e"/>
            </g>
          </g>
          <g id="Group_7597" data-name="Group 7597" transform="translate(6.808 5.221)">
            <g id="Group_7596" data-name="Group 7596">
              <path id="Path_5799" data-name="Path 5799" d="M585.527,145.217q15.447,46.135,30.9,92.27c.578,1.73,7.363-1.723,6.549-4.153q-15.447-46.135-30.894-92.267c-.58-1.73-7.363,1.723-6.552,4.15Z" transform="translate(-585.46 -140.599)" fill="#ff9a2e"/>
            </g>
          </g>
          <g id="Group_7599" data-name="Group 7599" transform="translate(17.546)">
            <g id="Group_7598" data-name="Group 7598">
              <path id="Path_5800" data-name="Path 5800" d="M589.842,143.064q15.447,46.135,30.9,92.267c.578,1.732,7.363-1.723,6.549-4.15q-15.447-46.135-30.9-92.27c-.577-1.73-7.363,1.725-6.549,4.153Z" transform="translate(-589.774 -138.444)" fill="#ff9a2e"/>
            </g>
          </g>
        </g>
      </g>
      <g id="Group_7799" data-name="Group 7799" transform="translate(984.35 505.339)">
        <path id="Path_5902" data-name="Path 5902" d="M-288.8,327.867s4.606-4.965,7.7-3.94-2.111,10.358-3.854,12.229-5.94-6.811-5.94-6.811Z" transform="translate(345.378 -140.958)" fill="#ff97a6"/>
        <path id="Path_5903" data-name="Path 5903" d="M-285.612,313.588s-1.478,11.981-.171,13.178,4.623,2.94,6.914-.239.094-13.622.094-13.622Z" transform="translate(379.854 -223.086)" fill="#ff97a6"/>
        <path id="Path_5904" data-name="Path 5904" d="M-223.322,314.318c-10.418-.043-23.373,4.948-32.031,8.452-13.8,5.572-37.03,21.622-41.406,38.756-3.23,12.665,8.648,56.07,42.679,53.652,7.315-.521,13.391-15.853,13.391-15.853l-32-39.944s1.171-4.948,16.477-14.554c3.658-2.3,23.6-15.186,23.6-15.186S-226.51,324.907-223.322,314.318Z" transform="translate(297.268 -212.416)" fill="#ff5e4d"/>
        <g id="Group_7794" data-name="Group 7794" transform="translate(148.405 399.175)">
          <path id="Path_5905" data-name="Path 5905" d="M-258.492,354.317c.872-5.093-6.239-3.683-10.375-4.828,1.248.735,2.487,1.812.573,2.41-2.794.872-9,.137-10.879-1.846a13.025,13.025,0,0,0-.718,5.094C-279.815,357.009-259.1,357.864-258.492,354.317Z" transform="translate(279.902 -346.19)" fill="#3b2b5b"/>
          <path id="Path_5906" data-name="Path 5906" d="M-268.938,354.812c1.914-.6.675-1.675-.573-2.41-2.564-.718-4.709-1.214-5.187-1.41a3.023,3.023,0,0,1-1.632-1.649l-1.29-.24s-2.008,3.41-2.2,3.863C-277.937,354.948-271.733,355.683-268.938,354.812Z" transform="translate(280.546 -349.103)" fill="#ff97a6"/>
        </g>
        <g id="Group_7795" data-name="Group 7795" transform="translate(58.826 399.175)">
          <path id="Path_5907" data-name="Path 5907" d="M-268.974,354.317c.872-5.093-6.247-3.683-10.375-4.828,1.248.735,2.487,1.812.572,2.41-2.794.872-9,.137-10.887-1.846a13.173,13.173,0,0,0-.709,5.094C-290.305,357.009-269.581,357.864-268.974,354.317Z" transform="translate(290.384 -346.19)" fill="#3b2b5b"/>
          <path id="Path_5908" data-name="Path 5908" d="M-279.412,354.812c1.914-.6.675-1.675-.573-2.41-2.564-.718-4.709-1.214-5.188-1.41a2.986,2.986,0,0,1-1.632-1.649l-1.29-.24s-2.017,3.41-2.2,3.863C-288.411,354.948-282.207,355.683-279.412,354.812Z" transform="translate(291.02 -349.103)" fill="#ff97a6"/>
        </g>
        <path id="Path_5909" data-name="Path 5909" d="M-274.311,402.138s51.541-15.776,60.352-27.911c12.033-16.579,18.306-60.976,6.589-68.291-4.521-2.82-23.177-.906-23.177-.906l-8.375,60.668s-29.561,18.314-36.893,23.613c-3.376,2.444-6.939,5.435-6.939,5.435Z" transform="translate(406.788 -287.297)" fill="#aacbe8"/>
        <path id="Path_5910" data-name="Path 5910" d="M-272.109,323.955c-.051.615-7.452,6.119-13.357,22.04-9.2,24.818-4.683,181.654-1.085,208.206.487,3.581,9.024,0,9.23-4.461,1.239-27.988,32.74-168.313,32.74-168.313l29.056,54.823,18.553,117.345h8.794s5.982-84.341,2.846-121.61c-2.555-30.424-20.237-102.458-24.467-109.1C-218.106,321.134-259.221,322.912-272.109,323.955Z" transform="translate(345.379 -153.334)" fill="#a87c1b"/>
        <g id="Group_7796" data-name="Group 7796" transform="translate(112.445 168.814)">
          <path id="Path_5911" data-name="Path 5911" d="M-236.509,431.984c-2.555-30.424-20.237-102.458-24.467-109.1-3.469-.735-12.665-.846-23.134-.658l5.632,3.2s27.766,100.757,31.056,131.8c2.589,24.5,4.786,75.8,5.6,96.365h2.47S-233.372,469.254-236.509,431.984Z" transform="translate(284.11 -322.148)" fill="#80540a"/>
        </g>
        <path id="Path_5912" data-name="Path 5912" d="M-216.9,323.131c-5.777-5.35-23.408-11.956-56.13-7.76-3.248.419-11.682,3.188-13.588,6.2-11.657,18.476,9.264,59.993,8.931,63.548,10.469,4.658,56.976,1.478,62.309-1.068a164.586,164.586,0,0,0,2.692-28.245A127.271,127.271,0,0,0-216.9,323.131Z" transform="translate(350.956 -214.495)" fill="#ff5e4d"/>
        <path id="Path_5913" data-name="Path 5913" d="M-286.221,313.331Z" transform="translate(380.628 -219.868)" fill="#3b2b5b"/>
        <path id="Path_5914" data-name="Path 5914" d="M-269.912,325.077c.795-1.846-.564-11.229-.564-11.229-3.222-4.187-13.075-2.256-14.742-1.008-1.829,1.376-1.709,4.128-1.667,6.179s1.914,11.5,8.563,11.545C-272.9,330.6-270.861,329.068-269.912,325.077Z" transform="translate(375.478 -235.259)" fill="#ff97a6"/>
        <path id="Path_5915" data-name="Path 5915" d="M-281.533,335.2s-4.375-5.042-5.3-9.23-1.632-10.777,3.359-14.22c6.17-4.264,13.109.085,16.263.307,3.991.274,4.624-2.119,6.521-1.316,4.982,2.094.633,14.887-2.837,19.656S-274.85,340.154-281.533,335.2Z" transform="translate(371.016 -245.892)" fill="#3b2b5b"/>
        <g id="Group_7797" data-name="Group 7797" transform="translate(83.521 64)">
          <path id="Path_5916" data-name="Path 5916" d="M-283.5,327.753c-.974-4.7-1.752-12.076,3.2-15.87a9.368,9.368,0,0,1,4.538-1.906,10.9,10.9,0,0,0-7.717,1.761c-4.991,3.444-4.29,10.024-3.359,14.212s5.3,9.238,5.3,9.238a10.468,10.468,0,0,0,2.248,1.274C-280.679,334.419-282.849,330.872-283.5,327.753Z" transform="translate(287.495 -309.883)" fill="#7f65c1"/>
        </g>
        <path id="Path_5917" data-name="Path 5917" d="M-276.372,320.126s-.906-9.238.384-11.588,3.4-6.435,4.538-6.128-1.513,5.452-1.436,5.905,6.358,1.743,6.435,3.709a5.344,5.344,0,0,1-1.367,3.487s-.222,5.3-1.128,6.435S-275.535,325.126-276.372,320.126Z" transform="translate(452.614 -302.394)" fill="#ff97a6"/>
        <g id="Group_7798" data-name="Group 7798" transform="translate(89.559 17.098)">
          <path id="Path_5918" data-name="Path 5918" d="M-176.929,305.936c-4.521-2.82-23.177-.906-23.177-.906l-8.375,60.668s-29.561,18.314-36.893,23.613c-1.179.855-2.367,1.769-3.436,2.607-7.418-3.281-19.827-5.871-37.978-4.828,6.435,2.136,14.221,6.187,18.16,13.793C-261.2,415.188-258.27,459.4-258.27,459.4c8.674-.684,15.63-1.65,17.5-2.547a164.592,164.592,0,0,0,2.692-28.245A127.986,127.986,0,0,0-241,401.232c10.913-3.5,49.917-16.588,57.48-27.005C-171.485,357.647-165.213,313.251-176.929,305.936Z" transform="translate(286.788 -304.395)" fill="#c43b72"/>
        </g>
      </g>
      <g id="Group_7720" data-name="Group 7720" transform="translate(1408.888 569.046)">
        <g id="Group_7629" data-name="Group 7629" transform="translate(148.163 272.019)">
          <g id="Group_7627" data-name="Group 7627" transform="translate(0 2.984)">
            <path id="Path_5814" data-name="Path 5814" d="M680.557,198.548c-.894-4.11,4.945-3.231,8.263-4.32-.985.651-1.952,1.571-.373,1.986,2.308.607,7.332-.223,8.79-1.914a10.608,10.608,0,0,1,.768,4.12C698.017,199.943,681.184,201.415,680.557,198.548Z" transform="translate(-680.465 -194.228)" fill="#3b2b5b"/>
          </g>
          <g id="Group_7628" data-name="Group 7628" transform="translate(7.146)">
            <path id="Path_5815" data-name="Path 5815" d="M684.057,198.047c-1.579-.415-.612-1.335.373-1.986,2.059-.674,3.791-1.156,4.172-1.335a2.441,2.441,0,0,0,1.265-1.408l1.045-.241s1.763,2.7,1.934,3.057C691.389,197.824,686.364,198.654,684.057,198.047Z" transform="translate(-683.221 -193.077)" fill="#ff97a6"/>
          </g>
        </g>
        <g id="Group_7632" data-name="Group 7632" transform="translate(221.077 271.62)">
          <g id="Group_7630" data-name="Group 7630" transform="translate(0 2.984)">
            <path id="Path_5816" data-name="Path 5816" d="M708.679,198.391c-.9-4.11,4.942-3.231,8.263-4.317-.985.648-1.955,1.569-.376,1.983,2.31.607,7.332-.223,8.79-1.911a10.6,10.6,0,0,1,.77,4.12C726.136,199.789,709.3,201.261,708.679,198.391Z" transform="translate(-708.586 -194.074)" fill="#3b2b5b"/>
          </g>
          <g id="Group_7631" data-name="Group 7631" transform="translate(7.145)">
            <path id="Path_5817" data-name="Path 5817" d="M712.177,197.891c-1.579-.415-.609-1.335.376-1.984,2.059-.677,3.788-1.159,4.172-1.338a2.433,2.433,0,0,0,1.263-1.405l1.045-.241s1.763,2.7,1.934,3.057C719.509,197.668,714.487,198.5,712.177,197.891Z" transform="translate(-711.342 -192.923)" fill="#ff97a6"/>
          </g>
        </g>
        <g id="Group_7633" data-name="Group 7633" transform="translate(151.288 85.846)">
          <path id="Path_5818" data-name="Path 5818" d="M748.381,121.449c.07.5,6.3,4.7,11.7,17.442,8.419,19.853,10.594,147.679,8.66,169.422-.262,2.932-7.351.34-7.677-3.282C759,282.3,728.124,169.252,728.124,169.252l-21.6,45.709L695.8,308.219l-7.159.329s-8.02-65.479-6.858-95.931c.949-24.86,12.645-84.147,15.845-89.711C704.327,121.166,737.857,121.083,748.381,121.449Z" transform="translate(-681.67 -121.273)" fill="#3b2b5b"/>
        </g>
        <g id="Group_7635" data-name="Group 7635" transform="translate(151.288 86.079)">
          <g id="Group_7634" data-name="Group 7634">
            <path id="Path_5819" data-name="Path 5819" d="M681.785,212.474c.949-24.86,12.645-84.147,15.845-89.711,2.8-.726,10.278-1.162,18.8-1.4l-4.465,2.821s-18.839,83.04-20.353,108.434c-1.2,20.037-1.068,58.929-.959,75.694l-2.012.093S680.623,242.927,681.785,212.474Z" transform="translate(-681.67 -121.363)" fill="#30193b"/>
          </g>
        </g>
        <g id="Group_7636" data-name="Group 7636" transform="translate(159.363 32.073)">
          <path id="Path_5820" data-name="Path 5820" d="M684.784,115.435c2.284-3.423,5.435-9.357,15.266-12.609,5.5-1.82,13.418-2.16,23.688-2.292,2.671-.034,8.956,3.3,10.918,5.429,6.109,6.625,11.593,44.895,12.531,47.646-7.415,5.676-46.831,10.936-51.535,9.928-.008-.148-2.816-9.308-6.039-22.231A226.743,226.743,0,0,1,684.784,115.435Z" transform="translate(-684.784 -100.534)" fill="#d3e7f2"/>
        </g>
        <g id="Group_7637" data-name="Group 7637" transform="translate(131.502 34.998)">
          <path id="Path_5821" data-name="Path 5821" d="M714.884,101.662c-.526,5.919,3.371,12.142-1.481,21.072-5.79,10.654-19.975,28.661-34.176,31.1-10.5,1.8-1.82-14.424-1.82-14.424s8.007-7.825,17.545-19.044C705.094,108.437,706.074,103.557,714.884,101.662Z" transform="translate(-674.039 -101.662)" fill="#1f6864"/>
        </g>
        <g id="Group_7638" data-name="Group 7638" transform="translate(182.413 31.772)">
          <path id="Path_5822" data-name="Path 5822" d="M694.711,104.315l15.35,56.28s16.2,29.693,19.838,29.817,18.785-6.9,20.25-8.087-4.276-18.808-15.995-28.568c0,0-8.93-45.646-14.712-49.738-6.031-4.27-18.1-3.8-23.3-3.249a23.572,23.572,0,0,0-2.468.384Z" transform="translate(-693.674 -100.418)" fill="#357a5f"/>
        </g>
        <g id="Group_7639" data-name="Group 7639" transform="translate(164.291 33.653)">
          <path id="Path_5823" data-name="Path 5823" d="M700.81,103.832l6.918,57.7-15.375,2.876-5.669-52.273,11.569-11Z" transform="translate(-686.685 -101.143)" fill="#aacbe8"/>
        </g>
        <g id="Group_7642" data-name="Group 7642" transform="translate(173.512 25.42)">
          <g id="Group_7640" data-name="Group 7640">
            <path id="Path_5824" data-name="Path 5824" d="M695.608,97.968s4.82,8.572,4.206,9.879-3.633,3.69-6.344,2-3.228-10.281-3.228-10.281Z" transform="translate(-690.241 -97.968)" fill="#ff97a6"/>
          </g>
          <g id="Group_7641" data-name="Group 7641" transform="translate(0.228 1.971)">
            <path id="Path_5825" data-name="Path 5825" d="M698.683,103.1a11.64,11.64,0,0,1-7.244,2.562,26.831,26.831,0,0,1-1.11-5.085l6.207-1.846C697.195,99.973,698.03,101.614,698.683,103.1Z" transform="translate(-690.329 -98.728)" fill="#c95d77"/>
          </g>
        </g>
        <g id="Group_7643" data-name="Group 7643" transform="translate(158.626 34.321)">
          <path id="Path_5826" data-name="Path 5826" d="M700.724,101.4l5.175,60.371-4.732,27.523a2.148,2.148,0,0,1-2.186,1.781l-13.638-2.126,4.823-28.215s-8.1-36.245-4.929-46.681S700.724,101.4,700.724,101.4Z" transform="translate(-684.5 -101.401)" fill="#1f6864"/>
        </g>
        <g id="Group_7644" data-name="Group 7644" transform="translate(148.854 0.508)">
          <path id="Path_5827" data-name="Path 5827" d="M683.337,90.512c3.811-2.977,10.345-2.341,14.7-1.2,4.885,1.276,10.086,4.1,12.806,8.5a3.721,3.721,0,0,1,3.934-.832c2.326.84,3.192,3.472,3.277,5.73.192,4.524-2.224,11.52-7.081,12.878-1.595,1.553-4.457.6-6.3-.122-2.562-1.011-5.759-2.37-7.278-4.768-5.738-2.974-13.454-7.846-15.891-12.676C680.184,95.4,680.4,92.8,683.337,90.512Z" transform="translate(-680.731 -88.36)" fill="#3b2b5b"/>
        </g>
        <g id="Group_7645" data-name="Group 7645" transform="translate(166.371 16.584)">
          <path id="Path_5828" data-name="Path 5828" d="M688.439,105.123c-.877-1.379-.952-7.369-.952-7.369,2.059-3.78,10.231-3.493,11.735-2.7,1.649.871,1.9,3.1,2.129,4.755s0,10.078-5.409,10.389C690.054,110.539,689.712,108.216,688.439,105.123Z" transform="translate(-687.487 -94.56)" fill="#ff97a6"/>
        </g>
        <g id="Group_7646" data-name="Group 7646" transform="translate(151.46)">
          <path id="Path_5829" data-name="Path 5829" d="M681.736,90.824a12.731,12.731,0,0,1,7.306-1.662,27.312,27.312,0,0,1,7.436,1.265,26.837,26.837,0,0,1,6.8,3.075,17.141,17.141,0,0,1,5.225,5.077l.018.029a.849.849,0,0,0,1.172.264.832.832,0,0,0,.155-.127,3.022,3.022,0,0,1,3.977-.2,6.216,6.216,0,0,1,2.01,4.366,16.9,16.9,0,0,1-.5,5.333,15.374,15.374,0,0,1-2.165,5.017,13.755,13.755,0,0,0,2.881-4.8,15.579,15.579,0,0,0,1-5.616A7.217,7.217,0,0,0,714.8,97.3a4.843,4.843,0,0,0-3.091-1.089,4.507,4.507,0,0,0-3.073,1.283l1.346.169a17.362,17.362,0,0,0-5.764-5.639,25.353,25.353,0,0,0-7.34-3.07,28.017,28.017,0,0,0-7.854-.757A11.925,11.925,0,0,0,681.736,90.824Z" transform="translate(-681.736 -88.164)" fill="#7f65c1"/>
        </g>
        <g id="Group_7648" data-name="Group 7648" transform="translate(181.879 36.925)">
          <g id="Group_7647" data-name="Group 7647">
            <path id="Path_5830" data-name="Path 5830" d="M693.468,154.53s9.3-14.058,12.624-24.6c1.022-3.241,2.557-23.89,11.258-27.5a.345.345,0,0,1,.161-.026c7.024.666,7.527,18.8-13.853,60.978C699.888,170.818,693.468,154.53,693.468,154.53Z" transform="translate(-693.468 -102.406)" fill="#357a5f"/>
          </g>
        </g>
        <g id="Group_7649" data-name="Group 7649" transform="translate(0 135.5)">
          <path id="Path_5831" data-name="Path 5831" d="M772.029,140.424s-6.114,12.025,7.229,30.095,28.16,21.468,29.4,49.471,5.715,50.267-20.4,65.891-90.212,18.085-125.943,6.2-46.238-42.7-34.251-74.665c4.706-12.549,29.094-28.223,26.631-46.264S772.029,140.424,772.029,140.424Z" transform="translate(-623.321 -140.424)" fill="#aacbe8"/>
        </g>
        <g id="Group_7650" data-name="Group 7650" transform="translate(14.983 106.511)">
          <path id="Path_5832" data-name="Path 5832" d="M741.393,140.244c1.081,1.675,4.164,5,10.395,6.485,2.331.555,4.719-.337,8.131,1.688,5.333,3.163,8.657,10.641,4.211,12.783-5.217,2.51-8.893,7.841-9.344,8.561-1.32,2.105-5.471,20.724-7.278,23.732-15.412,25.643-50.337,37.617-92.758,22.218-48.278-17.522-14.958-54.506-7.568-61.911,6.889-6.9,5.5-8.86,28.311-10.828a40.924,40.924,0,0,0,10.568-2.344c7.893-2.9,22.726-8.222,29.047-9.71C723.928,128.838,732.315,126.173,741.393,140.244Z" transform="translate(-629.1 -129.243)" fill="#d5eaf5"/>
        </g>
        <g id="Group_7651" data-name="Group 7651" transform="translate(26.62 109.369)" opacity="0.54">
          <path id="Path_5833" data-name="Path 5833" d="M735.4,146.062c.765.583,15.871,5.912,4.527,20.8s-23.587,38-46.095,36.289S670,192.787,657.017,191.737s-24.046-3.111-23.4-14.242,10.664-28.241,19.407-31.085,29.664-3.1,43.24-9.8,22.755-8.7,28.477-2.655S729.408,141.49,735.4,146.062Z" transform="translate(-633.588 -130.346)" fill="#aacbe8"/>
        </g>
        <g id="Group_7652" data-name="Group 7652" transform="translate(90.755 104.011)">
          <path id="Path_5834" data-name="Path 5834" d="M670.159,133.008a10.907,10.907,0,0,1-3.2,3.48c-1.734,1.045-4.454,1.309-6.417,1.452-.8.062-2.307.083-2.212-1.092.06-.669.957-1.509,1.2-1.981.031-.1,1.361-3.988,2.676-4.073a3.191,3.191,0,0,1,.6.036,6.747,6.747,0,0,1,3.526.778c.151.005,4.206-2.891,5.056-3.272.729-.347-.625,1-.176,1.662a2.273,2.273,0,0,1,.169,1.468A7.787,7.787,0,0,1,670.159,133.008Z" transform="translate(-658.323 -128.279)" fill="#ff97a6"/>
        </g>
        <g id="Group_7653" data-name="Group 7653" transform="translate(99.623 67.672)">
          <path id="Path_5835" data-name="Path 5835" d="M709.512,130.091c-3.835,9.938-31.135,37.08-43.2,26.454a15.7,15.7,0,0,1-4.33-6.752,4.5,4.5,0,0,1,1.55-5.033l40.126-30.5S714.7,116.649,709.512,130.091Z" transform="translate(-661.744 -114.264)" fill="#1f6864"/>
        </g>
        <g id="Group_7654" data-name="Group 7654" transform="translate(94.138 110.737)">
          <path id="Path_5836" data-name="Path 5836" d="M662.542,131.975s-3.368,2.624-2.862,3.052,5.059-1.636,5.839-3.441S662.542,131.975,662.542,131.975Z" transform="translate(-659.628 -130.873)" fill="#ff97a6"/>
        </g>
        <g id="Group_7655" data-name="Group 7655" transform="translate(145.803 128.896)">
          <path id="Path_5837" data-name="Path 5837" d="M689.453,138.152a10.865,10.865,0,0,0-4.628.959c-1.789.949-3.415,3.148-4.545,4.755-.467.656-1.257,1.939-.2,2.461.6.293,1.786-.047,2.31-.008.1.021,4.12.882,4.872-.2a3.544,3.544,0,0,0,.277-.534,6.743,6.743,0,0,0,1.144-3.425c.075-.132,4.641-2.121,5.406-2.652.674-.449-1.182.018-1.517-.705a2.268,2.268,0,0,0-1.169-.9A7.9,7.9,0,0,0,689.453,138.152Z" transform="translate(-679.555 -137.877)" fill="#ff97a6"/>
        </g>
        <g id="Group_7657" data-name="Group 7657" transform="translate(154.255 87.966)">
          <g id="Group_7656" data-name="Group 7656">
            <path id="Path_5838" data-name="Path 5838" d="M686.042,145.183c4.545-4.934,24.616-22.972,24.616-22.972s15.746-1.392,12.305,5.333a222.73,222.73,0,0,1-13.026,22.36c-6.487,10.1-17.854,20.053-25.342,17.981C682.474,167.3,681.494,150.117,686.042,145.183Z" transform="translate(-682.814 -122.091)" fill="#357a5f"/>
          </g>
        </g>
        <g id="Group_7658" data-name="Group 7658" transform="translate(145.569 130.843)">
          <path id="Path_5839" data-name="Path 5839" d="M683.908,138.628s-3.747,1.206-4.348,2.321,1.763-.135,2.559.054S683.908,138.628,683.908,138.628Z" transform="translate(-679.464 -138.628)" fill="#ff97a6"/>
        </g>
        <g id="Group_7672" data-name="Group 7672" transform="translate(88.61 117.357)">
          <g id="Group_7659" data-name="Group 7659" transform="translate(0 1.654)">
            <path id="Path_5840" data-name="Path 5840" d="M663.864,173.614c7.742,8.279,19.731,9.477,28,4.506a62.648,62.648,0,0,0,6.739-5.678c8.924-8.346,6.425-19.589-2.422-29.05s-20.475-12.967-29.4-4.62a65.1,65.1,0,0,0-5.556,6.583A22.76,22.76,0,0,0,663.864,173.614Z" transform="translate(-657.496 -134.065)" fill="#ff9a2e"/>
          </g>
          <g id="Group_7668" data-name="Group 7668" transform="translate(0.004 1.654)">
            <g id="Group_7660" data-name="Group 7660">
              <path id="Path_5841" data-name="Path 5841" d="M683.409,178.377a.521.521,0,0,0-.711-.762l-3.609,3.376a23.2,23.2,0,0,1-4.548-.827l3.788-3.542a.522.522,0,0,0-.713-.762L673.4,179.8a23.323,23.323,0,0,1-3.684-1.631l4.094-3.83a.521.521,0,0,0-.711-.762l-4.325,4.045a23.539,23.539,0,0,1-3.97-3.067l4.519-4.226a.521.521,0,0,0-.71-.762l-4.548,4.252c-.065-.07-.135-.137-.2-.207a24.1,24.1,0,0,1-3.51-4.828l4.208-3.933a.521.521,0,0,0-.71-.762l-4,3.739a22.815,22.815,0,0,1-1.911-5.621l4.027-3.765a.521.521,0,0,0-.71-.762l-3.526,3.3a22.643,22.643,0,0,1-.226-3.739l3.718-3.474a.522.522,0,0,0-.713-.762l-2.922,2.733a22.367,22.367,0,0,1,3.638-10.382,65.087,65.087,0,0,1,5.556-6.583c8.925-8.346,20.551-4.841,29.4,4.62s11.346,20.7,2.422,29.05a62.642,62.642,0,0,1-6.739,5.678,21.31,21.31,0,0,1-11.325,2.943Z" transform="translate(-657.498 -134.065)" fill="none"/>
            </g>
            <g id="Group_7661" data-name="Group 7661" transform="translate(2.352 29.891)">
              <path id="Path_5842" data-name="Path 5842" d="M663.129,145.761a.516.516,0,0,1-.016.729l-4.208,3.933c-.174-.316-.342-.635-.5-.957l4-3.739A.513.513,0,0,1,663.129,145.761Z" transform="translate(-658.405 -145.593)" fill="#ef7f18"/>
            </g>
            <g id="Group_7662" data-name="Group 7662" transform="translate(0.231 23.482)">
              <path id="Path_5843" data-name="Path 5843" d="M661.839,143.289a.516.516,0,0,1-.016.729l-4.027,3.765c-.083-.407-.151-.819-.21-1.229l3.526-3.3A.513.513,0,0,1,661.839,143.289Z" transform="translate(-657.587 -143.121)" fill="#ef7f18"/>
            </g>
            <g id="Group_7663" data-name="Group 7663" transform="translate(0.006 18.804)">
              <path id="Path_5844" data-name="Path 5844" d="M661.231,141.485a.516.516,0,0,1-.013.729l-3.718,3.474c.013-.5.036-1,.083-1.5l2.922-2.733A.513.513,0,0,1,661.231,141.485Z" transform="translate(-657.5 -141.317)" fill="#ef7f18"/>
            </g>
            <g id="Group_7664" data-name="Group 7664" transform="translate(6.566 35.37)">
              <path id="Path_5845" data-name="Path 5845" d="M665.3,147.874a.513.513,0,0,1-.016.729l-4.519,4.226c-.249-.239-.5-.485-.739-.736l4.548-4.252A.514.514,0,0,1,665.3,147.874Z" transform="translate(-660.03 -147.706)" fill="#ef7f18"/>
            </g>
            <g id="Group_7665" data-name="Group 7665" transform="translate(11.274 39.381)">
              <path id="Path_5846" data-name="Path 5846" d="M666.9,149.421a.516.516,0,0,1-.016.729l-4.094,3.83c-.316-.176-.63-.358-.941-.547l4.325-4.045A.514.514,0,0,1,666.9,149.421Z" transform="translate(-661.846 -149.253)" fill="#ef7f18"/>
            </g>
            <g id="Group_7666" data-name="Group 7666" transform="translate(15.9 41.66)">
              <path id="Path_5847" data-name="Path 5847" d="M668.577,150.3a.518.518,0,0,1-.016.729l-3.788,3.542c-.384-.109-.765-.231-1.143-.36l4.218-3.944A.517.517,0,0,1,668.577,150.3Z" transform="translate(-663.63 -150.132)" fill="#ef7f18"/>
            </g>
            <g id="Group_7667" data-name="Group 7667" transform="translate(21.591 43.415)">
              <path id="Path_5848" data-name="Path 5848" d="M670.16,150.977a.516.516,0,0,1-.015.729l-2.87,2.686c-.482-.008-.967-.036-1.449-.073l3.609-3.376A.514.514,0,0,1,670.16,150.977Z" transform="translate(-665.825 -150.809)" fill="#ef7f18"/>
            </g>
          </g>
          <g id="Group_7669" data-name="Group 7669" transform="translate(2.674)">
            <path id="Path_5849" data-name="Path 5849" d="M664.894,171.742c8.738,9.344,23.206,10.019,32.314,1.5s9.4-23,.661-32.343-23.208-10.021-32.314-1.5S656.154,162.394,664.894,171.742Z" transform="translate(-658.528 -133.427)" fill="#ffcb48"/>
          </g>
          <g id="Group_7671" data-name="Group 7671" transform="translate(11.676 4.451)">
            <g id="Group_7670" data-name="Group 7670">
              <path id="Path_5850" data-name="Path 5850" d="M684.948,148.706a8.728,8.728,0,0,1,4.045,5.995,8.442,8.442,0,0,1-2.39,6.816c.583.918,1.167,1.831,1.753,2.748a.222.222,0,0,1-.1.329c-.638.384-1.224.739-1.81,1.094a.56.56,0,0,1-.69-.1l-1.32-2.072c-.407.309-.817.6-1.231.856-.093.06-.187.117-.28.174-.127.078-.257.153-.384.228.451.708.9,1.413,1.354,2.121a.319.319,0,0,1,.049.22.266.266,0,0,1-.047.122.364.364,0,0,1-.1.1c-.628.392-1.213.747-1.8,1.1a.546.546,0,0,1-.63-.119l-1.454-2.287a9.585,9.585,0,0,1-4.6.56c-3.018-.407-5.079-2.1-6.754-4.6-.135-.2.215-.651.373-.747q1.435-.867,2.865-1.735a6.528,6.528,0,0,0,5.854,2.979l-4.975-7.8-.534.171c-1.945.607-4.078.975-6.047,0a8.21,8.21,0,0,1-1.589-12.982q-.8-1.252-1.6-2.5a.307.307,0,0,1,.137-.472l1.755-1.063a.538.538,0,0,1,.633.117L666.738,140c.192-.127.386-.251.586-.371.252-.156.511-.3.768-.438.21-.109.417-.213.63-.314q-.716-1.12-1.431-2.243c-.1-.148.036-.288.153-.358l1.758-1.063a.556.556,0,0,1,.69.1q.832,1.3,1.662,2.606a8.39,8.39,0,0,1,9.132,3.889c.091.137-.081.412-.244.594a.505.505,0,0,1-.13.153q-1.435.867-2.865,1.735a6.064,6.064,0,0,0-3.306-2.315q2.061,3.232,4.12,6.464c.078-.023.156-.052.233-.075A8.113,8.113,0,0,1,684.948,148.706Zm-2.437,11.8q-2.38-3.734-4.765-7.473c-.418.14-.819.277-1.2.4l-1.035.334,5.038,7.9c.366-.181.757-.392,1.151-.63.269-.163.542-.34.806-.529m-7.1-11.139q-2.314-3.629-4.628-7.257a8.569,8.569,0,0,0-1.945.879l-.137.086q2.24,3.516,4.483,7.032c.744-.239,1.486-.49,2.227-.739m-5.129,1.569q-1.832-2.878-3.671-5.759a3.858,3.858,0,0,0,.651,5.022,3.35,3.35,0,0,0,3.021.736m14.875,5.173a4.036,4.036,0,0,0-4.4-3.757q1.925,3.014,3.848,6.033a3.566,3.566,0,0,0,.55-2.276" transform="translate(-661.999 -135.143)" fill="#ff9a2e"/>
            </g>
          </g>
        </g>
        <g id="Group_7682" data-name="Group 7682" transform="translate(47.173 105.563)">
          <g id="Group_7673" data-name="Group 7673">
            <ellipse id="Ellipse_104" data-name="Ellipse 104" cx="24.003" cy="24.554" rx="24.003" ry="24.554" fill="#ffcb48"/>
          </g>
          <g id="Group_7674" data-name="Group 7674" transform="translate(1.059 1.125)">
            <path id="Path_5851" data-name="Path 5851" d="M641.923,152.741a22.949,22.949,0,1,1,22.944,23.429A23.216,23.216,0,0,1,641.923,152.741Zm3.591,0A19.359,19.359,0,1,0,664.867,132.9,19.623,19.623,0,0,0,645.514,152.741Z" transform="translate(-641.923 -129.312)" fill="#ff9a2e"/>
          </g>
          <g id="Group_7681" data-name="Group 7681" transform="translate(13.646 5.68)">
            <g id="Group_7676" data-name="Group 7676" transform="translate(0 3.774)">
              <g id="Group_7675" data-name="Group 7675">
                <path id="Path_5852" data-name="Path 5852" d="M665.3,140.558a9.045,9.045,0,0,0-3.946-7.063c-1.859-1.219-4.1-1.1-6.194-.666a13.977,13.977,0,0,0-6.308,2.844c-2.08,1.833-1.932,4.537-.879,6.925a8.658,8.658,0,0,0,5.429,4.924c2.878,1.016,6.028,1.408,8.419,3.49,4.068,3.542.767,8.914-4.247,8.5-4.182-.345-8.733-3.187-8.012-7.96.117-.78-2.585-.324-2.694.4-1.027,6.811,6.98,9.516,12.433,8.639,2.528-.407,5.188-1.61,6.469-3.959,1.418-2.6.327-5.282-1.908-6.959-2.253-1.693-5.017-2.2-7.639-3.047-3.386-1.092-5.95-3.575-6.269-7.335-.306-3.607,3.793-6.021,7.125-5.533,3.228.469,5.463,4.5,5.5,7.488.008.57,2.735.163,2.725-.687Z" transform="translate(-646.777 -132.524)" fill="#ff9a2e"/>
              </g>
            </g>
            <g id="Group_7678" data-name="Group 7678" transform="translate(5.288 0.57)">
              <g id="Group_7677" data-name="Group 7677">
                <path id="Path_5853" data-name="Path 5853" d="M649.374,132.306q-.28,17.914-.557,35.83c-.01.672,2.709.257,2.725-.687q.28-17.914.558-35.83c.01-.672-2.709-.257-2.725.687Z" transform="translate(-648.817 -131.289)" fill="#ff9a2e"/>
              </g>
            </g>
            <g id="Group_7680" data-name="Group 7680" transform="translate(9.566)">
              <g id="Group_7679" data-name="Group 7679">
                <path id="Path_5854" data-name="Path 5854" d="M651.022,132.086q-.276,17.914-.555,35.83c-.01.672,2.71.257,2.723-.684q.28-17.918.557-35.833c.01-.672-2.71-.257-2.725.687Z" transform="translate(-650.467 -131.069)" fill="#ff9a2e"/>
              </g>
            </g>
          </g>
        </g>
        <g id="Group_7696" data-name="Group 7696" transform="translate(28.729 134.217)">
          <g id="Group_7683" data-name="Group 7683" transform="translate(0 0)">
            <path id="Path_5855" data-name="Path 5855" d="M635.877,155.112c-3.933,10.63.366,21.886,8.515,27.053a62.986,62.986,0,0,0,8.095,3.482c11.46,4.239,20.393-3.031,24.888-15.181s2.419-24.116-9.041-28.355a65.1,65.1,0,0,0-8.375-2.017A22.758,22.758,0,0,0,635.877,155.112Z" transform="translate(-634.401 -139.929)" fill="#ff9a2e"/>
          </g>
          <g id="Group_7692" data-name="Group 7692" transform="translate(0.004)">
            <g id="Group_7684" data-name="Group 7684">
              <path id="Path_5856" data-name="Path 5856" d="M640.373,174.722a.521.521,0,0,0,.36-.978L636.1,172.03a23.107,23.107,0,0,1-1.3-4.436l4.864,1.8a.522.522,0,0,0,.363-.978l-5.417-2a23.583,23.583,0,0,1-.192-4.027l5.258,1.945a.522.522,0,0,0,.363-.977l-5.554-2.053a23.55,23.55,0,0,1,.965-4.924l5.8,2.149a.522.522,0,0,0,.363-.977l-5.836-2.16c.031-.093.06-.184.093-.275a24.107,24.107,0,0,1,2.743-5.3l5.4,2a.521.521,0,0,0,.36-.978l-5.134-1.9a23,23,0,0,1,4.169-4.226l5.17,1.913a.522.522,0,0,0,.363-.978l-4.527-1.675a22.7,22.7,0,0,1,3.241-1.875l4.771,1.766a.522.522,0,0,0,.363-.978l-3.754-1.39a22.341,22.341,0,0,1,10.913-1.4,65.1,65.1,0,0,1,8.375,2.017c11.46,4.239,13.537,16.205,9.041,28.355s-13.428,19.42-24.888,15.181a62.982,62.982,0,0,1-8.095-3.482,21.308,21.308,0,0,1-7.706-8.808Z" transform="translate(-634.402 -139.929)" fill="none"/>
            </g>
            <g id="Group_7685" data-name="Group 7685" transform="translate(4.215 9.004)">
              <path id="Path_5857" data-name="Path 5857" d="M642.087,145.966a.515.515,0,0,1-.656.314l-5.4-2c.2-.3.415-.591.63-.876l5.134,1.9A.511.511,0,0,1,642.087,145.966Z" transform="translate(-636.028 -143.402)" fill="#ef7f18"/>
            </g>
            <g id="Group_7686" data-name="Group 7686" transform="translate(9.014 4.039)">
              <path id="Path_5858" data-name="Path 5858" d="M643.708,143.828a.515.515,0,0,1-.659.311l-5.17-1.913c.329-.257.666-.5,1.006-.739l4.527,1.675A.519.519,0,0,1,643.708,143.828Z" transform="translate(-637.879 -141.487)" fill="#ef7f18"/>
            </g>
            <g id="Group_7687" data-name="Group 7687" transform="translate(13.261 1.563)">
              <path id="Path_5859" data-name="Path 5859" d="M644.946,142.586a.514.514,0,0,1-.659.314l-4.771-1.766c.454-.215.913-.417,1.379-.6l3.754,1.39A.512.512,0,0,1,644.946,142.586Z" transform="translate(-639.517 -140.532)" fill="#ef7f18"/>
            </g>
            <g id="Group_7688" data-name="Group 7688" transform="translate(1.049 15.458)">
              <path id="Path_5860" data-name="Path 5860" d="M641.268,148.715a.518.518,0,0,1-.659.314l-5.8-2.149c.1-.329.21-.659.329-.988l5.836,2.16A.515.515,0,0,1,641.268,148.715Z" transform="translate(-634.807 -145.891)" fill="#ef7f18"/>
            </g>
            <g id="Group_7689" data-name="Group 7689" transform="translate(0.017 21.369)">
              <path id="Path_5861" data-name="Path 5861" d="M640.326,150.891a.514.514,0,0,1-.659.311l-5.258-1.945c.015-.363.036-.723.067-1.086l5.554,2.053A.519.519,0,0,1,640.326,150.891Z" transform="translate(-634.409 -148.171)" fill="#ef7f18"/>
            </g>
            <g id="Group_7690" data-name="Group 7690" transform="translate(0.209 26.482)">
              <path id="Path_5862" data-name="Path 5862" d="M640.2,152.811a.514.514,0,0,1-.659.314l-4.864-1.8c-.073-.392-.135-.786-.189-1.182l5.417,2A.515.515,0,0,1,640.2,152.811Z" transform="translate(-634.483 -150.143)" fill="#ef7f18"/>
            </g>
            <g id="Group_7691" data-name="Group 7691" transform="translate(1.7 32.101)">
              <path id="Path_5863" data-name="Path 5863" d="M639.984,154.69a.512.512,0,0,1-.656.311l-3.69-1.364c-.207-.436-.4-.879-.581-1.328l4.631,1.714A.515.515,0,0,1,639.984,154.69Z" transform="translate(-635.058 -152.31)" fill="#ef7f18"/>
            </g>
          </g>
          <g id="Group_7693" data-name="Group 7693" transform="translate(3.774 1.005)">
            <path id="Path_5864" data-name="Path 5864" d="M637.338,155.589c-4.441,12,1.437,25.238,13.13,29.563s24.772-1.893,29.211-13.895-1.436-25.238-13.13-29.566S641.777,143.587,637.338,155.589Z" transform="translate(-635.856 -140.317)" fill="#ffcb48"/>
          </g>
          <g id="Group_7695" data-name="Group 7695" transform="translate(14.816 5.691)">
            <g id="Group_7694" data-name="Group 7694">
              <path id="Path_5865" data-name="Path 5865" d="M662.45,158.832a8.748,8.748,0,0,1,2.59,6.754,8.45,8.45,0,0,1-3.866,6.1l1.089,3.072c.054.153-.036.252-.174.3-.708.231-1.359.443-2.009.659a.556.556,0,0,1-.648-.252l-.822-2.315c-.464.21-.931.4-1.392.555-.1.039-.208.073-.311.106-.143.047-.285.093-.425.137.28.791.557,1.579.84,2.37a.319.319,0,0,1,0,.226.3.3,0,0,1-.073.109.434.434,0,0,1-.122.073c-.7.239-1.348.451-2,.666a.545.545,0,0,1-.589-.259q-.451-1.276-.905-2.554a9.543,9.543,0,0,1-4.607-.49c-2.849-1.076-4.475-3.192-5.546-6.008-.086-.226.355-.586.534-.643l3.181-1.045a6.525,6.525,0,0,0,5.033,4.219q-1.544-4.356-3.091-8.717l-.56.047c-2.03.153-4.193.031-5.891-1.366a8.206,8.206,0,0,1,1.377-13q-.5-1.4-.993-2.8c-.08-.231.036-.366.241-.43.651-.215,1.3-.428,1.95-.643a.542.542,0,0,1,.589.259l.817,2.3c.215-.08.433-.158.653-.231.28-.091.565-.176.848-.251.228-.06.454-.114.682-.163q-.443-1.252-.889-2.507c-.057-.166.1-.272.231-.314.651-.215,1.3-.428,1.95-.64a.559.559,0,0,1,.653.249q.517,1.458,1.032,2.914a8.39,8.39,0,0,1,8.022,5.847c.057.153-.171.384-.371.524a.542.542,0,0,1-.163.119l-3.181,1.045a6.065,6.065,0,0,0-2.7-3q1.279,3.613,2.559,7.224c.081-.005.163-.016.244-.018A8.115,8.115,0,0,1,662.45,158.832Zm-5.033,10.949q-1.482-4.177-2.961-8.354c-.438.044-.861.086-1.255.122l-1.084.091q1.567,4.418,3.129,8.829c.4-.093.827-.21,1.265-.353.3-.1.6-.21.9-.334M653,157.328q-1.439-4.056-2.875-8.113a8.783,8.783,0,0,0-2.092.417l-.153.052q1.392,3.932,2.785,7.861c.778-.065,1.558-.14,2.336-.218m-5.349.373q-1.14-3.216-2.282-6.435a3.856,3.856,0,0,0-.5,5.038,3.35,3.35,0,0,0,2.78,1.4m13.324,8.39a4.036,4.036,0,0,0-3.436-4.651l2.388,6.744a3.537,3.537,0,0,0,1.048-2.092" transform="translate(-640.115 -142.124)" fill="#ff9a2e"/>
            </g>
          </g>
        </g>
        <g id="Group_7706" data-name="Group 7706" transform="translate(55.038 136.201)">
          <g id="Group_7697" data-name="Group 7697">
            <ellipse id="Ellipse_105" data-name="Ellipse 105" cx="24.002" cy="24.554" rx="24.002" ry="24.554" fill="#ffcb48"/>
          </g>
          <g id="Group_7698" data-name="Group 7698" transform="translate(1.058 1.125)">
            <path id="Path_5866" data-name="Path 5866" d="M644.956,164.557A22.949,22.949,0,1,1,667.9,187.985,23.216,23.216,0,0,1,644.956,164.557Zm3.591,0A19.359,19.359,0,1,0,667.9,144.719,19.623,19.623,0,0,0,648.547,164.557Z" transform="translate(-644.956 -141.128)" fill="#ff9a2e"/>
          </g>
          <g id="Group_7705" data-name="Group 7705" transform="translate(13.645 5.68)">
            <g id="Group_7700" data-name="Group 7700" transform="translate(0 3.776)">
              <g id="Group_7699" data-name="Group 7699">
                <path id="Path_5867" data-name="Path 5867" d="M668.335,152.374a9.054,9.054,0,0,0-3.946-7.06c-1.861-1.219-4.1-1.1-6.194-.666a13.933,13.933,0,0,0-6.308,2.842c-2.079,1.836-1.932,4.537-.879,6.925a8.651,8.651,0,0,0,5.43,4.924c2.878,1.016,6.028,1.41,8.416,3.49,4.068,3.542.767,8.914-4.245,8.5-4.182-.345-8.733-3.187-8.015-7.96.117-.78-2.585-.324-2.694.4-1.024,6.814,6.98,9.516,12.433,8.639,2.528-.407,5.188-1.61,6.469-3.957,1.418-2.606.326-5.284-1.908-6.962-2.253-1.693-5.014-2.2-7.636-3.047-3.386-1.092-5.953-3.576-6.272-7.335-.306-3.607,3.793-6.02,7.128-5.533,3.225.472,5.46,4.5,5.5,7.488.005.573,2.733.166,2.725-.687Z" transform="translate(-649.811 -144.341)" fill="#ff9a2e"/>
              </g>
            </g>
            <g id="Group_7702" data-name="Group 7702" transform="translate(5.291 0.57)">
              <g id="Group_7701" data-name="Group 7701">
                <path id="Path_5868" data-name="Path 5868" d="M652.406,144.122q-.276,17.914-.555,35.83c-.011.672,2.709.257,2.722-.684q.28-17.918.558-35.833c.01-.672-2.71-.257-2.725.687Z" transform="translate(-651.851 -143.105)" fill="#ff9a2e"/>
              </g>
            </g>
            <g id="Group_7704" data-name="Group 7704" transform="translate(9.566)">
              <g id="Group_7703" data-name="Group 7703">
                <path id="Path_5869" data-name="Path 5869" d="M654.057,143.9q-.28,17.914-.557,35.83c-.011.672,2.709.257,2.725-.684l.555-35.833c.01-.672-2.71-.257-2.723.687Z" transform="translate(-653.5 -142.885)" fill="#ff9a2e"/>
              </g>
            </g>
          </g>
        </g>
        <g id="Group_7716" data-name="Group 7716" transform="translate(75.62 135.417)">
          <g id="Group_7707" data-name="Group 7707">
            <path id="Path_5870" data-name="Path 5870" d="M652.486,164.946c0,13.56,10.747,24.554,24,24.554s24-10.994,24-24.554-10.747-24.554-24-24.554S652.486,151.386,652.486,164.946Z" transform="translate(-652.486 -140.392)" fill="#ffcb48"/>
          </g>
          <g id="Group_7708" data-name="Group 7708" transform="translate(1.06 1.123)">
            <path id="Path_5871" data-name="Path 5871" d="M652.895,164.256a22.947,22.947,0,1,1,22.944,23.429A23.218,23.218,0,0,1,652.895,164.256Zm3.591,0a19.357,19.357,0,1,0,19.353-19.838A19.621,19.621,0,0,0,656.486,164.256Z" transform="translate(-652.895 -140.825)" fill="#ff9a2e"/>
          </g>
          <g id="Group_7715" data-name="Group 7715" transform="translate(13.647 5.68)">
            <g id="Group_7710" data-name="Group 7710" transform="translate(0 3.774)">
              <g id="Group_7709" data-name="Group 7709">
                <path id="Path_5872" data-name="Path 5872" d="M676.271,152.072a9.048,9.048,0,0,0-3.946-7.063c-1.859-1.219-4.1-1.1-6.194-.666a13.949,13.949,0,0,0-6.308,2.844c-2.079,1.833-1.932,4.537-.879,6.925a8.657,8.657,0,0,0,5.429,4.924c2.878,1.016,6.028,1.408,8.416,3.49,4.068,3.542.767,8.914-4.245,8.5-4.182-.345-8.732-3.187-8.014-7.963.119-.778-2.585-.321-2.691.4-1.027,6.811,6.977,9.516,12.43,8.639,2.528-.407,5.191-1.613,6.469-3.959,1.421-2.6.329-5.282-1.906-6.959-2.256-1.693-5.017-2.2-7.638-3.047-3.386-1.092-5.953-3.575-6.272-7.335-.306-3.607,3.8-6.02,7.128-5.536,3.228.472,5.463,4.5,5.5,7.491.008.57,2.735.163,2.725-.687Z" transform="translate(-657.749 -144.038)" fill="#ff9a2e"/>
              </g>
            </g>
            <g id="Group_7712" data-name="Group 7712" transform="translate(5.288 0.57)">
              <g id="Group_7711" data-name="Group 7711">
                <path id="Path_5873" data-name="Path 5873" d="M660.347,143.82q-.28,17.914-.557,35.83c-.011.672,2.709.257,2.725-.687q.276-17.914.555-35.83c.01-.672-2.71-.257-2.722.687Z" transform="translate(-659.789 -142.803)" fill="#ff9a2e"/>
              </g>
            </g>
            <g id="Group_7714" data-name="Group 7714" transform="translate(9.564)">
              <g id="Group_7713" data-name="Group 7713">
                <path id="Path_5874" data-name="Path 5874" d="M662,143.6q-.28,17.914-.557,35.83c-.01.672,2.709.257,2.725-.687q.28-17.914.557-35.83c.01-.672-2.71-.257-2.725.687Z" transform="translate(-661.438 -142.583)" fill="#ff9a2e"/>
              </g>
            </g>
          </g>
        </g>
        <g id="Group_7717" data-name="Group 7717" transform="translate(18.941 135.78)">
          <path id="Path_5875" data-name="Path 5875" d="M751.07,140.532S733.514,159,727.164,174.371s-41.052,2.756-54.524,4.5-31.223-3.01-34.334-11.909-7.68,11.341-7.68,11.341,14.5,22,41.786,21.715,52.582-3.526,61.481-17.317S754.495,146.98,751.07,140.532Z" transform="translate(-630.626 -140.532)" fill="#d5eaf5"/>
        </g>
        <g id="Group_7718" data-name="Group 7718" transform="translate(55.603 195.264)">
          <path id="Path_5876" data-name="Path 5876" d="M729.157,163.474c-2.875,3.07-5.844,6.036-8.945,8.862-1.527,1.436-3.106,2.816-4.654,4.226l-4.8,4.058a192.534,192.534,0,0,1-20.32,14.706c-3.479,2.323-7.138,4.346-10.771,6.417-1.833,1-3.728,1.888-5.593,2.839l-2.8,1.405-2.865,1.273-5.748,2.525-5.9,2.155c-.983.363-1.958.757-2.948,1.1l-3.013.9-6.034,1.833a122.508,122.508,0,0,0,24.188-7.242l2.943-1.172,2.852-1.377c1.893-.933,3.822-1.8,5.686-2.792,3.695-2.046,7.423-4.04,10.965-6.347a171.953,171.953,0,0,0,20.25-15.173A140.347,140.347,0,0,0,729.157,163.474Z" transform="translate(-644.766 -163.474)" fill="#d5eaf5"/>
        </g>
        <g id="Group_7719" data-name="Group 7719" transform="translate(40.677 221.413)">
          <path id="Path_5877" data-name="Path 5877" d="M722.534,173.559a80.2,80.2,0,0,1-16.146,18.054,92.008,92.008,0,0,1-20.307,13.039c-1.8.9-3.7,1.592-5.551,2.4l-2.793,1.164-2.886.918c-1.929.6-3.84,1.255-5.782,1.8-1.976.425-3.944.882-5.912,1.351l-2.958.695-3,.428-6.023.856c-4.027.472-8.095.547-12.163.923,2.036.031,4.073.049,6.114.044,2.038-.041,4.091.1,6.127-.091l6.1-.609,3.057-.309,3.015-.581c2.012-.384,4.027-.778,6.034-1.206,1.978-.529,3.93-1.169,5.9-1.753l2.948-.895,2.857-1.143c1.893-.8,3.842-1.47,5.688-2.375a87.822,87.822,0,0,0,20.442-13.625,85.022,85.022,0,0,0,8.5-8.867A62.414,62.414,0,0,0,722.534,173.559Z" transform="translate(-639.009 -173.559)" fill="#d5eaf5"/>
        </g>
      </g>
      <g id="Mask_Group_2" data-name="Mask Group 2" clip-path="url(#clip-path)">
        <g id="Group_7807" data-name="Group 7807" transform="translate(995.527 306.056)">
          <g id="Group_7811" data-name="Group 7811" transform="translate(341.032 165.424)">
            <g id="Group_7807-2" data-name="Group 7807">
              <path id="Path_5920" data-name="Path 5920" d="M502.108,253.238a2.76,2.76,0,0,1,1.728-2.527l7.459-2.983a2.763,2.763,0,0,0,1.741-2.767,85.842,85.842,0,0,0-2.538-15.035,2.763,2.763,0,0,0-2.546-2.041l-8.015-.379a2.754,2.754,0,0,1-2.451-1.818q-.97-2.645-2.131-5.2a2.754,2.754,0,0,1,.458-3.01l5.42-5.917a2.767,2.767,0,0,0,.371-3.248,86.814,86.814,0,0,0-8.81-12.445,2.764,2.764,0,0,0-3.185-.734l-7.4,3.139a2.745,2.745,0,0,1-2.991-.576q-2.014-1.945-4.17-3.744a2.749,2.749,0,0,1-.892-2.909l2.322-7.7a2.765,2.765,0,0,0-1.073-3.084,85.67,85.67,0,0,0-13.34-7.393,2.77,2.77,0,0,0-3.188.72l-5.286,6.02a2.753,2.753,0,0,1-2.937.783q-2.653-.872-5.4-1.545a2.752,2.752,0,0,1-2.08-2.238l-1.247-7.939a2.769,2.769,0,0,0-2.309-2.312,85.759,85.759,0,0,0-15.223-.892,2.755,2.755,0,0,0-2.557,2.031l-2.156,7.737a2.763,2.763,0,0,1-2.32,1.981c-1.864.24-3.709.554-5.535.931A2.75,2.75,0,0,1,409,177.027l-4.558-6.6a2.758,2.758,0,0,0-3.084-1.081,86.676,86.676,0,0,0-14.1,5.8,2.764,2.764,0,0,0-1.425,2.942L387.244,186a2.755,2.755,0,0,1-1.22,2.786q-2.35,1.539-4.571,3.248a2.747,2.747,0,0,1-3.043.226l-6.989-3.976a2.759,2.759,0,0,0-3.242.36,85.872,85.872,0,0,0-10.193,11.345,2.768,2.768,0,0,0-.008,3.27l4.708,6.512a2.749,2.749,0,0,1,.1,3.048q-1.457,2.395-2.737,4.9a2.752,2.752,0,0,1-2.639,1.52l-7.994-.549a2.76,2.76,0,0,0-2.765,1.73c-.917,2.352-1.744,4.76-2.459,7.232s-1.307,4.945-1.793,7.423a2.758,2.758,0,0,0,1.411,2.942l8.692,4.705c-.09.74-.191,1.474-.259,2.221-.156,1.736-.243,3.466-.278,5.183a2.767,2.767,0,0,1-1.728,2.53l-7.459,2.98a2.767,2.767,0,0,0-1.741,2.767,85.568,85.568,0,0,0,2.538,15.037,2.763,2.763,0,0,0,2.546,2.041l8.015.379a2.753,2.753,0,0,1,2.451,1.818q.97,2.64,2.131,5.2a2.755,2.755,0,0,1-.458,3.01l-5.42,5.914a2.767,2.767,0,0,0-.371,3.248,86.656,86.656,0,0,0,8.81,12.445,2.769,2.769,0,0,0,3.185.737l7.4-3.141a2.755,2.755,0,0,1,2.994.576q2.014,1.949,4.17,3.744a2.754,2.754,0,0,1,.892,2.912l-2.322,7.7a2.761,2.761,0,0,0,1.073,3.084,85.437,85.437,0,0,0,13.34,7.393,2.765,2.765,0,0,0,3.188-.718l5.286-6.02a2.742,2.742,0,0,1,2.936-.783q2.653.868,5.4,1.545a2.748,2.748,0,0,1,2.08,2.238l1.247,7.936a2.768,2.768,0,0,0,2.309,2.314,85.752,85.752,0,0,0,15.223.892,2.765,2.765,0,0,0,2.557-2.03l2.156-7.737a2.752,2.752,0,0,1,2.32-1.981q2.8-.364,5.535-.933a2.749,2.749,0,0,1,2.833,1.116l4.56,6.6a2.767,2.767,0,0,0,3.084,1.081,86.668,86.668,0,0,0,14.1-5.8,2.76,2.76,0,0,0,1.425-2.939l-1.414-7.909a2.749,2.749,0,0,1,1.22-2.786q2.35-1.535,4.571-3.248a2.752,2.752,0,0,1,3.043-.227l6.989,3.979a2.764,2.764,0,0,0,3.242-.36,86.221,86.221,0,0,0,10.193-11.345,2.768,2.768,0,0,0,.008-3.27l-4.708-6.512a2.753,2.753,0,0,1-.1-3.051c.969-1.594,1.886-3.229,2.737-4.9a2.755,2.755,0,0,1,2.639-1.517l7.994.549a2.759,2.759,0,0,0,2.765-1.733c.917-2.352,1.744-4.76,2.459-7.229s1.307-4.948,1.793-7.423a2.768,2.768,0,0,0-1.411-2.945l-8.692-4.7c.09-.737.191-1.474.259-2.219C501.985,256.685,502.073,254.958,502.108,253.238Zm-8.335,6.493a67.219,67.219,0,1,1-58.687-74.784A67.219,67.219,0,0,1,493.773,259.731Z" transform="translate(-341.032 -165.424)" fill="#7f65c1"/>
            </g>
            <g id="Group_7808" data-name="Group 7808" transform="translate(24.341 25.543)">
              <path id="Path_5921" data-name="Path 5921" d="M443.211,183.665a60.458,60.458,0,0,0-24.327-8.438,61.331,61.331,0,0,0-7.344-.442,60.713,60.713,0,0,0-7.191,120.988,61.311,61.311,0,0,0,7.344.442,60.355,60.355,0,0,0,31.519-112.549Zm-31.669-8.881v.357h0Z" transform="translate(-349.951 -174.784)" fill="#7f65c1"/>
            </g>
            <g id="Group_7809" data-name="Group 7809" transform="translate(85.932 0.018)">
              <path id="Path_5922" data-name="Path 5922" d="M447.663,253.227a2.76,2.76,0,0,1,1.728-2.527l7.459-2.983a2.763,2.763,0,0,0,1.741-2.767,85.836,85.836,0,0,0-2.538-15.035,2.763,2.763,0,0,0-2.546-2.041l-8.016-.379a2.754,2.754,0,0,1-2.451-1.818q-.97-2.645-2.131-5.2a2.754,2.754,0,0,1,.458-3.01l5.42-5.917a2.767,2.767,0,0,0,.371-3.248,86.81,86.81,0,0,0-8.81-12.445,2.764,2.764,0,0,0-3.185-.734l-7.4,3.139a2.745,2.745,0,0,1-2.991-.576q-2.014-1.945-4.17-3.744a2.749,2.749,0,0,1-.892-2.909l2.322-7.7a2.765,2.765,0,0,0-1.073-3.084,85.669,85.669,0,0,0-13.34-7.393,2.771,2.771,0,0,0-3.188.72l-5.286,6.02a2.753,2.753,0,0,1-2.936.783q-2.653-.872-5.4-1.545a2.752,2.752,0,0,1-2.08-2.238l-1.247-7.939a2.768,2.768,0,0,0-2.309-2.312,85.582,85.582,0,0,0-12.66-.914v19.036a68.12,68.12,0,0,1,8.122.469,67.213,67.213,0,0,1-8.122,133.943v19.036c.9,0,1.809.006,2.71-.022a2.765,2.765,0,0,0,2.557-2.03l2.156-7.737a2.752,2.752,0,0,1,2.32-1.981q2.8-.364,5.535-.933a2.749,2.749,0,0,1,2.833,1.116l4.56,6.6a2.767,2.767,0,0,0,3.084,1.081,86.668,86.668,0,0,0,14.1-5.8,2.76,2.76,0,0,0,1.425-2.939l-1.414-7.909a2.749,2.749,0,0,1,1.22-2.786q2.35-1.535,4.571-3.248a2.752,2.752,0,0,1,3.043-.227l6.989,3.979a2.764,2.764,0,0,0,3.242-.36,86.221,86.221,0,0,0,10.193-11.345,2.768,2.768,0,0,0,.008-3.27l-4.708-6.512a2.753,2.753,0,0,1-.1-3.051c.969-1.594,1.886-3.229,2.737-4.9a2.754,2.754,0,0,1,2.639-1.517l7.994.549a2.759,2.759,0,0,0,2.765-1.733c.917-2.352,1.744-4.76,2.459-7.229s1.307-4.948,1.793-7.423a2.768,2.768,0,0,0-1.411-2.945l-8.692-4.7c.09-.737.191-1.474.259-2.219C447.54,256.674,447.627,254.946,447.663,253.227Z" transform="translate(-372.519 -165.431)" fill="#6c56b2"/>
            </g>
            <g id="Group_7810" data-name="Group 7810" transform="translate(85.932 25.543)">
              <path id="Path_5923" data-name="Path 5923" d="M404.188,183.665a60.457,60.457,0,0,0-24.327-8.438,61.319,61.319,0,0,0-7.341-.442h0v121.43h.15a60.355,60.355,0,0,0,31.519-112.549Z" transform="translate(-372.519 -174.784)" fill="#6c56b2"/>
            </g>
          </g>
          <g id="Group_7812" data-name="Group 7812" transform="translate(401.487 225.775)">
            <circle id="Ellipse_114" data-name="Ellipse 114" cx="25.909" cy="25.909" r="25.909" fill="url(#linear-gradient)"/>
          </g>
        </g>
      </g>
      <g id="Group_7820" data-name="Group 7820" transform="translate(-31 171.31)">
        <g id="Group_7819" data-name="Group 7819" transform="translate(1334.625 468.732)">
          <g id="Group_7817" data-name="Group 7817" transform="translate(0 0)">
            <g id="Group_7813" data-name="Group 7813">
              <path id="Path_5924" data-name="Path 5924" d="M401.292,198.276a1.032,1.032,0,0,1,.646-.945l2.79-1.116a1.034,1.034,0,0,0,.651-1.035,32.117,32.117,0,0,0-.95-5.625,1.034,1.034,0,0,0-.953-.764l-3-.142a1.03,1.03,0,0,1-.917-.68q-.363-.989-.8-1.944a1.03,1.03,0,0,1,.172-1.126l2.028-2.214a1.035,1.035,0,0,0,.139-1.215,32.48,32.48,0,0,0-3.3-4.656,1.034,1.034,0,0,0-1.192-.275l-2.768,1.174a1.027,1.027,0,0,1-1.119-.215q-.753-.728-1.56-1.4a1.028,1.028,0,0,1-.334-1.088l.869-2.882a1.034,1.034,0,0,0-.4-1.154,32.048,32.048,0,0,0-4.991-2.766,1.036,1.036,0,0,0-1.192.27l-1.978,2.252a1.03,1.03,0,0,1-1.1.293q-.992-.326-2.019-.578a1.029,1.029,0,0,1-.778-.837l-.467-2.97a1.036,1.036,0,0,0-.864-.865,32.087,32.087,0,0,0-5.7-.334,1.031,1.031,0,0,0-.957.76l-.807,2.895a1.034,1.034,0,0,1-.868.741c-.7.09-1.388.207-2.071.348a1.029,1.029,0,0,1-1.061-.418l-1.705-2.468a1.032,1.032,0,0,0-1.154-.4,32.425,32.425,0,0,0-5.275,2.169,1.034,1.034,0,0,0-.533,1.1l.529,2.958a1.031,1.031,0,0,1-.456,1.042q-.879.576-1.71,1.215a1.027,1.027,0,0,1-1.138.085l-2.615-1.488a1.032,1.032,0,0,0-1.213.135,32.124,32.124,0,0,0-3.813,4.244,1.036,1.036,0,0,0,0,1.223l1.761,2.436a1.028,1.028,0,0,1,.039,1.14q-.545.9-1.024,1.835a1.03,1.03,0,0,1-.987.569l-2.99-.205a1.033,1.033,0,0,0-1.034.647c-.343.88-.652,1.781-.92,2.706s-.489,1.85-.671,2.777a1.032,1.032,0,0,0,.528,1.1l3.252,1.76c-.034.277-.071.551-.1.831-.058.649-.091,1.3-.1,1.939a1.035,1.035,0,0,1-.646.946l-2.79,1.115a1.035,1.035,0,0,0-.651,1.035,32.016,32.016,0,0,0,.949,5.626,1.034,1.034,0,0,0,.953.764l3,.142a1.03,1.03,0,0,1,.917.68q.363.988.8,1.944a1.031,1.031,0,0,1-.171,1.126l-2.028,2.212a1.035,1.035,0,0,0-.139,1.215,32.422,32.422,0,0,0,3.3,4.656,1.036,1.036,0,0,0,1.191.276l2.767-1.175a1.031,1.031,0,0,1,1.12.215q.753.729,1.56,1.4a1.03,1.03,0,0,1,.334,1.089l-.869,2.881a1.033,1.033,0,0,0,.4,1.154,31.961,31.961,0,0,0,4.991,2.766,1.035,1.035,0,0,0,1.192-.269l1.978-2.252a1.026,1.026,0,0,1,1.1-.293q.992.325,2.018.578a1.028,1.028,0,0,1,.778.837l.467,2.969a1.036,1.036,0,0,0,.864.866,32.084,32.084,0,0,0,5.7.334,1.034,1.034,0,0,0,.957-.76l.807-2.895a1.029,1.029,0,0,1,.868-.741q1.046-.136,2.071-.349a1.028,1.028,0,0,1,1.06.418l1.706,2.469a1.035,1.035,0,0,0,1.154.4,32.424,32.424,0,0,0,5.275-2.17,1.032,1.032,0,0,0,.533-1.1l-.529-2.959a1.029,1.029,0,0,1,.456-1.042q.879-.574,1.71-1.215a1.029,1.029,0,0,1,1.138-.085l2.615,1.489a1.034,1.034,0,0,0,1.213-.135,32.255,32.255,0,0,0,3.813-4.244,1.036,1.036,0,0,0,0-1.223l-1.761-2.436a1.03,1.03,0,0,1-.039-1.141c.362-.6.706-1.208,1.024-1.835a1.031,1.031,0,0,1,.987-.568l2.99.205a1.032,1.032,0,0,0,1.034-.648c.343-.88.652-1.781.92-2.7s.489-1.851.671-2.777a1.035,1.035,0,0,0-.528-1.1l-3.252-1.76c.034-.276.071-.551.1-.83C401.246,199.566,401.279,198.92,401.292,198.276Zm-3.118,2.429a25.147,25.147,0,1,1-21.955-27.977A25.147,25.147,0,0,1,398.174,200.705Z" transform="translate(-341.032 -165.424)" fill="#7f65c1"/>
            </g>
            <g id="Group_7814" data-name="Group 7814" transform="translate(9.106 9.556)">
              <path id="Path_5925" data-name="Path 5925" d="M384.84,178.106a22.618,22.618,0,0,0-9.1-3.157,22.947,22.947,0,0,0-2.747-.165,22.713,22.713,0,0,0-2.69,45.263,22.938,22.938,0,0,0,2.747.165,22.579,22.579,0,0,0,11.791-42.106Zm-11.848-3.322v.134h0Z" transform="translate(-349.951 -174.784)" fill="#7f65c1"/>
            </g>
            <g id="Group_7815" data-name="Group 7815" transform="translate(32.148 0.007)">
              <path id="Path_5926" data-name="Path 5926" d="M400.631,198.276a1.033,1.033,0,0,1,.646-.945l2.79-1.116a1.034,1.034,0,0,0,.651-1.035,32.112,32.112,0,0,0-.95-5.625,1.034,1.034,0,0,0-.953-.764l-3-.142a1.03,1.03,0,0,1-.917-.68q-.363-.989-.8-1.944a1.03,1.03,0,0,1,.172-1.126l2.028-2.214a1.035,1.035,0,0,0,.139-1.215,32.477,32.477,0,0,0-3.3-4.656,1.034,1.034,0,0,0-1.191-.275l-2.768,1.174a1.027,1.027,0,0,1-1.119-.215q-.753-.728-1.56-1.4a1.028,1.028,0,0,1-.334-1.088l.869-2.882a1.034,1.034,0,0,0-.4-1.154,32.049,32.049,0,0,0-4.991-2.766,1.037,1.037,0,0,0-1.193.27l-1.978,2.252a1.03,1.03,0,0,1-1.1.293q-.992-.326-2.019-.578a1.029,1.029,0,0,1-.778-.837l-.467-2.97a1.036,1.036,0,0,0-.864-.865,32.017,32.017,0,0,0-4.736-.342v7.121a25.482,25.482,0,0,1,3.038.176,25.145,25.145,0,0,1-3.038,50.109v7.121c.338,0,.677,0,1.014-.008a1.034,1.034,0,0,0,.957-.76l.807-2.894a1.029,1.029,0,0,1,.868-.741q1.046-.136,2.071-.349a1.028,1.028,0,0,1,1.06.418L381,228.092a1.035,1.035,0,0,0,1.154.4,32.422,32.422,0,0,0,5.275-2.17,1.032,1.032,0,0,0,.533-1.1l-.529-2.959a1.029,1.029,0,0,1,.456-1.042q.879-.574,1.71-1.215a1.029,1.029,0,0,1,1.138-.085l2.615,1.489a1.034,1.034,0,0,0,1.213-.135,32.254,32.254,0,0,0,3.813-4.244,1.036,1.036,0,0,0,0-1.223l-1.761-2.436a1.03,1.03,0,0,1-.039-1.141c.362-.6.706-1.208,1.024-1.835a1.031,1.031,0,0,1,.987-.568l2.99.205a1.032,1.032,0,0,0,1.034-.648c.343-.88.652-1.781.92-2.7s.489-1.851.671-2.777a1.035,1.035,0,0,0-.528-1.1l-3.252-1.76c.034-.276.071-.551.1-.83C400.585,199.566,400.618,198.92,400.631,198.276Z" transform="translate(-372.519 -165.431)" fill="#6c56b2"/>
            </g>
            <g id="Group_7816" data-name="Group 7816" transform="translate(32.148 9.556)">
              <path id="Path_5927" data-name="Path 5927" d="M384.367,178.106a22.618,22.618,0,0,0-9.1-3.157,22.943,22.943,0,0,0-2.746-.165h0v45.428h.056a22.579,22.579,0,0,0,11.791-42.106Z" transform="translate(-372.519 -174.784)" fill="#6c56b2"/>
            </g>
          </g>
          <g id="Group_7818" data-name="Group 7818" transform="translate(22.617 22.578)">
            <circle id="Ellipse_115" data-name="Ellipse 115" cx="9.693" cy="9.693" r="9.693" fill="url(#linear-gradient)"/>
          </g>
        </g>
      </g>
    </g>
  </g>
</svg>
